<?xml version="1.0" encoding="UTF-8" standalone="no"?>
<svg xmlns="http://www.w3.org/2000/svg" xmlns:xlink="http://www.w3.org/1999/xlink" version="1.1" viewBox="0 0 366 400" width="302" height="331"
xml:space="preserve">
	<defs
     id="defs6"><linearGradient
       id="linearGradient23958"
       gradientUnits="userSpaceOnUse"
       gradientTransform="matrix(22.4,8.14,8.14,-22.4,547,266)"><stop
         id="stop9"
         style="stop-color:#9475b2;stop-opacity:1"
         offset="0" /><stop
         id="stop11"
         style="stop-color:#662e8e;stop-opacity:1"
         offset="1" /></linearGradient><linearGradient
       id="linearGradient23976"
       gradientUnits="userSpaceOnUse"
       gradientTransform="matrix(-24.2,-34.2,-34.2,24.2,622,260)"><stop
         id="stop14"
         style="stop-color:#9475b2;stop-opacity:1"
         offset="0" /><stop
         id="stop16"
         style="stop-color:#b09ac8;stop-opacity:1"
         offset="1" /></linearGradient><linearGradient
       id="linearGradient23994"
       gradientUnits="userSpaceOnUse"
       gradientTransform="matrix(98.9,19.8,19.8,-98.9,478,144)"><stop
         id="stop19"
         style="stop-color:#714196;stop-opacity:1"
         offset="0" /><stop
         id="stop21"
         style="stop-color:#662e8e;stop-opacity:1"
         offset="1" /></linearGradient><linearGradient
       id="linearGradient24012"
       gradientUnits="userSpaceOnUse"
       gradientTransform="matrix(-23.8,-27.6,-27.6,23.8,434,193)"><stop
         id="stop24"
         style="stop-color:#9475b2;stop-opacity:1"
         offset="0" /><stop
         id="stop26"
         style="stop-color:#b09ac8;stop-opacity:1"
         offset="1" /></linearGradient><linearGradient
       id="linearGradient24030"
       gradientUnits="userSpaceOnUse"
       gradientTransform="matrix(-4e-6,-50.4,-50.4,4e-6,437,293)"><stop
         id="stop29"
         style="stop-color:#9475b2;stop-opacity:1"
         offset="0" /><stop
         id="stop31"
         style="stop-color:#662e8e;stop-opacity:1"
         offset="1" /></linearGradient><linearGradient
       id="linearGradient61288"
       gradientUnits="userSpaceOnUse"
       gradientTransform="matrix(2.31,2.31,2.31,-2.31,609,270)"><stop
         id="stop34"
         style="stop-color:#9475b2;stop-opacity:1"
         offset="0" /><stop
         id="stop36"
         style="stop-color:#662e8e;stop-opacity:1"
         offset="1" /></linearGradient><linearGradient
       id="linearGradient55360"
       xlink:href="#linearGradient61288"
       gradientUnits="userSpaceOnUse"
       gradientTransform="matrix(2.888,2.888,-2.888,2.888,186.5,269.3)" /><linearGradient
       id="linearGradient69602"
       xlink:href="#linearGradient24030"
       gradientUnits="userSpaceOnUse"
       gradientTransform="matrix(-63,-5e-6,5e-6,-63,215.3,54.25)" /><linearGradient
       id="linearGradient69605"
       xlink:href="#linearGradient24012"
       gradientUnits="userSpaceOnUse"
       gradientTransform="matrix(-34.5,-29.75,29.75,-34.5,90.25,50.5)" /><linearGradient
       id="linearGradient69608"
       xlink:href="#linearGradient23994"
       gradientUnits="userSpaceOnUse"
       gradientTransform="matrix(24.75,123.6,-123.6,24.75,29,105.5)" /><linearGradient
       id="linearGradient69611"
       xlink:href="#linearGradient23976"
       gradientUnits="userSpaceOnUse"
       gradientTransform="matrix(-42.75,-30.25,30.25,-42.75,174,285.5)" /><linearGradient
       id="linearGradient69614"
       xlink:href="#linearGradient23958"
       gradientUnits="userSpaceOnUse"
       gradientTransform="matrix(10.18,28,-28,10.18,181.5,191.8)" /></defs><g
     id="g94417"><path
       d="m 151.8,200.6 77.2,0 0,31.4 -77.2,0.1 0,-31.5"
       id="path23844"
       style="fill:url(#linearGradient69614)" /><path
       d="m 229,232 -77.2,77.3 -74.05,0 L 77.62,232 229,232"
       id="path23846"
       style="fill:url(#linearGradient69611)" /><path
       d="m 0.5,77.5 0,154.7 77.25,77.1 0,-232.68 L 0.5,77.5"
       id="path23848"
       style="fill:url(#linearGradient69608)" /><path
       d="M 151.8,0.25 77.37,0.25 0.5,77.5 152,77.5 151.8,0.25"
       id="path23850"
       style="fill:url(#linearGradient69605)" /><path
       d="m 151.9,108.9 77.2,0.1 0,-32 -77.3,-76.75 0.1,108.65"
       id="path23852"
       style="fill:url(#linearGradient69602)" /></g><g
     id="g94409"
     style="fill:#662d8d"><path
       d="m 192.8,369.3 12.6,1.6 c -0.4,8.7 -3.1,15.1 -9,20.9 -11.8,11.9 -26.8,12.2 -40.9,-2 -0.2,-0.2 -2.9,-3.1 -3.1,-3.3 -15.9,-16.4 -11,-32 -1.7,-41.3 5.6,-5.6 13.7,-8.7 24,-6.5 l -2.2,13.3 c -5.9,-0.9 -10.2,-0.2 -13.3,2.8 -4.6,4.7 -3.9,12 3.9,20.1 0.2,0.2 2.3,2.4 2.4,2.5 8,8 16.5,11.1 22.6,4.9 3.2,-3.2 4.5,-7.7 4.7,-13"
       id="path52340" /><path
       d="m 246.5,339.3 -25.8,-25.9 -7.3,-5.8 8.8,-8.7 4.1,2.8 c -0.7,-4.7 0.6,-9.4 4.8,-13.7 6.2,-6.2 13.6,-6.6 21.3,1.1 l 22.1,22.2 -10.6,10.6 -20.3,-20.3 c -2.9,-2.9 -5.2,-4.6 -7.7,-2.2 -2.6,2.6 -2.1,6.2 0.6,8.9 l 20.5,20.5 -10.5,10.5"
       id="path52344" /><path
       d="m 272.8,293 c 3.9,-0.8 9.9,-3.3 12.7,-6.1 1.9,-1.9 2.4,-3.7 0.7,-5.5 -1.9,-1.9 -4.4,-0.7 -7.4,0.9 -6.6,3.4 -13.5,6.5 -20.3,-0.3 -6.9,-7 -5.1,-16.3 2,-23.4 5.1,-5 11.5,-7.7 17.5,-7.9 l 1.2,10.9 c -4.9,0.6 -8.7,2 -10.6,4 -1.8,1.8 -2.2,3.7 -0.6,5.2 1.8,1.8 4.4,0.9 7.8,-0.9 6.2,-3.1 13.5,-6.4 20.2,0.3 7,7.1 5.7,16 -2.1,23.8 -5.9,5.8 -13,8.6 -16.4,9.2 L 272.8,293"
       id="path52348" /><path
       d="m 307.8,214.3 26.2,26.3 6.9,5.4 -9,8.9 -3.5,-2.6 -0.2,0.3 c 0.6,4.6 -1.1,8.9 -4.5,12.2 -7.2,7.2 -14.6,7 -22.2,-0.7 l -21.7,-21.8 10.6,-10.6 20.3,20.4 c 2.9,2.8 5.2,4.5 7.8,1.8 2.2,-2.2 2.1,-5.6 -0.4,-8.1 l -20.9,-20.9 10.6,-10.6"
       id="path52352" /><path
       d="m 339,228 c 3.9,-0.8 9.9,-3.3 12.7,-6.1 1.9,-1.9 2.4,-3.7 0.7,-5.5 -1.9,-1.9 -4.4,-0.7 -7.4,0.9 -6.6,3.4 -13.5,6.5 -20.3,-0.3 -6.9,-7 -5.1,-16.3 2,-23.4 5.1,-5 11.5,-7.7 17.5,-7.9 l 1.2,10.9 c -4.9,0.6 -8.6,2 -10.6,4 -1.8,1.8 -2.2,3.7 -0.6,5.2 1.8,1.8 4.4,0.9 7.8,-0.9 6.2,-3.1 13.5,-6.4 20.2,0.3 7.1,7.1 5.7,16 -2.1,23.8 -5.9,5.8 -13,8.6 -16.4,9.2 L 339,228"
       id="path52356" /><path
       d="m 204,343 8.6,-8.6 c -0.7,-1.2 -1.5,-2 -2.3,-2.9 -2.5,-2.3 -5,-2.4 -7.3,-0.2 -3.1,3.1 -2.4,7.7 1,11.7 z m 16.2,-20 c 3,3 5.6,7.1 6.5,9.1 L 210,348.8 c 4.8,4.5 9.7,4 13.7,0 3.1,-3.1 4.7,-7 5.3,-10.7 l 10.2,4.2 c 0,0.1 -1.4,8.3 -8.7,15.6 -11.5,11.4 -23.3,8.8 -33,-0.9 -9.2,-9.2 -12.4,-22.6 -1.3,-33.7 7.2,-7.2 16.4,-7.9 24,-0.3"
       id="path52360" /></g><path
     d="m 37.75,175.5 c -10.59,0 -13.59,2.1 -13.59,5.2 0,3.4 3.21,5.4 14.36,5.4 10.04,0 13.38,-2.1 13.38,-5.2 0,-3.2 -2.92,-5.4 -14.15,-5.4 z m 0.1,22.3 c -16.17,0 -23.14,-7 -23.14,-17.2 0,-10.5 6.83,-16.7 22.93,-16.7 16.73,0 23.49,6.2 23.49,17.1 0,11.3 -7.17,16.8 -23.28,16.8 z m 22.66,35.1 -7.04,0 -16.31,-14.4 c -3.21,-2.8 -5.02,-4.3 -8.09,-4.3 -2.65,0 -3.84,1.8 -3.84,3.9 0,2.5 2.1,5.9 4.88,8.8 l -7.73,6.4 c -4.54,-4.5 -7.67,-10.7 -7.67,-17 0,-9.6 5.23,-14.4 13.04,-14.4 5.15,0 9.06,2 13.66,6.1 l 9.68,8.6 0,-16.1 9.42,0 0,32.4 z m -44.89,-97.1 8.57,0.7 27.53,0 0,-7.2 8.79,0 0,26.6 -8.79,0 0,-7.6 -23.35,0 3.7,7.3 -7.68,4.3 -8.77,-14.4 0,-9.7 z m 0,-34.2 8.57,0.7 27.53,0 0,-7.24 8.79,0 0,26.54 -8.79,0 0,-7.6 -23.35,0 3.7,7.3 -7.68,4.4 -8.77,-14.4 0,-9.7"
     id="path52364"
     style="fill:#ffffff" /></svg>